<svg id="Capa_1" data-name="Capa 1" xmlns="http://www.w3.org/2000/svg" viewBox="0 0 464.13 515"><defs><style>.cls-1{fill:#633368;}.cls-2{fill:#008296;}.cls-3{fill:#25a3b4;}</style></defs><title>Isotipo Marisa Peraggini_seahorse</title><path class="cls-1" d="M471.44,528c120.14,0,219.05-90.13,232.1-206a351.93,351.93,0,0,0-464.13,0C252.45,437.87,351.37,528,471.44,528Z" transform="translate(-239.41 -13)"/><path class="cls-2" d="M395.34,171.53l-4.4,14.23a5.38,5.38,0,0,0,3,6.41l39.5,16.46c2.43,1,3.24,0,1.82-2.18,0,0-30.18-50.89-29.75-81.39,1.31-93,90.1-82.94,90.1-82.94,2.5-.82,2.81-2.77.72-4.33L464.26,13.9A4.22,4.22,0,0,0,458,15.14l-10.4,17.4a7.4,7.4,0,0,1-7.15,3.23l-32.91-6.18a4.07,4.07,0,0,0-4.94,3.89L401.17,62.7a8.68,8.68,0,0,1-4.58,6.77L372.19,80.69a3.77,3.77,0,0,0-1.52,5.86l16,21.81a6.17,6.17,0,0,1-.37,7.42l-25.8,28.82a3.39,3.39,0,0,0,1.13,5.62l30.76,14.68A5.72,5.72,0,0,1,395.34,171.53Z" transform="translate(-239.41 -13)"/><path class="cls-2" d="M597.21,132.26l-43.83-20.71c-1.93-.91-4.26-3.24-4.28-5.08,0-8-2.17-60.32-67.35-60.32-22.51,0-74.1,20.54-70.12,81,2.52,38.19,32.67,80.84,42.61,90.51a57,57,0,0,1,13.46,19c-1.26-.9-2.59-1.81-4-2.73-5.65-3.61-15.35-7-25.13-11.37-37.58-17-46.13-16.9-50.45-11.28-4,5.26-2.14,18.89,19.62,32.93,11.87,7.66,8.25,13.05,7,16.78-1.69,4.94-24.41,13.47-32.4,21.6s-3.61,19.67,13.27,18.48c13.63-1,44.76.66,65.76-8.6-2,4.08-4.29,8.35-7,12.84-29.65,49.5-42.84,48.86-60.66,76.57-16.13,25.08-17.23,49-11.23,71.27,6.34,23.5,29.71,44.22,66.62,44.22s54.71-32.34,54.71-58.74c0-20.46-12.62-48.17-48.78-48.17-32.73,0-36.81,26.32-36.81,31.88s2.48,25.19,24.3,26.2c20.72,1,17.27-10.71,16.47-12.54s-2.64-4.25-5.93-4c-6.45.58-2,7.92-9.22,7.25s-13.18-5.64-13.18-17.15c0-12.55,8.54-19.14,22.93-19.14,15.61,0,31.1,13.2,31.1,35s-17.53,36.31-39.43,36.31c-17.86,0-41.93-15.33-41.93-46.81,0-38.94,59.7-68.93,80-78.89S564.51,312.08,564.51,246c0-55.44-43.94-73.79-59.39-80.52-16.73-7.29-28.53-17.14-35-25.73a27.53,27.53,0,0,1-4.65-9.08,21.12,21.12,0,0,1,2.32,1.13c15.52,10.38,33.91,12,57.09,6.23,6.16-1.69,8.26.26,11.14,2.49,11.16,8.63,33.34,25.94,35.22,27.17,2,1.67,13.58,12,20.79,7,5.87-4.09,3.82-8.6,7.1-14.75s10.65-9.42,10.37-16.65C609.27,136.62,598.84,132.95,597.21,132.26Z" transform="translate(-239.41 -13)"/><path class="cls-3" d="M592,144.59s-48-27.31-50-25.37c-2.68,2.53-5.83,2.92-6.81,2-1.61-1.61.44-5.39,0.86-9,2.35-12.46-4.15-50.68-48.86-50.68-19.45,0-45,10.09-53.26,33.31-9.47,26.64-6.56,52,10.54,79.86s49.44,42.9,50.76,80.52-33,77.89-33,77.89c62-19.8,80.48-62.71,80.48-86.46s-8.64-41.58-27.72-53.46a456.43,456.43,0,0,1-52.09-37.62c-19.06-16.82-15.18-29.19-8.44-33.8a42.74,42.74,0,0,1-7.35-13c-0.92-2.57.47-4.23,3-1.45a62.65,62.65,0,0,0,22.47,16c26,10.66,52.55,3.5,56.52,2.49,0,0,2.91-.93,7,2.08s43.55,29.35,43.55,29.35,5.25,5.06,7.86,3.74c3.22-1.64,2.58-4,3.6-6.07s2.65-2.79,3.66-6.54C595.38,146,592,144.6,592,144.59ZM512.24,80.81c-0.32,0-.42.75-0.34,1.3a8.39,8.39,0,0,1,.08,1.16,10.22,10.22,0,1,1-20.45,0,9.11,9.11,0,0,1,.09-1.25,1.35,1.35,0,0,0-1.18-1.12c-0.36.12-1.71-1.42,0.59-3.5,7.9-7.16,16.82-4.67,21.32,0C514.47,79.59,513.85,81,512.24,80.81Z" transform="translate(-239.41 -13)"/></svg>