<svg id="Capa_1" data-name="Capa 1" xmlns="http://www.w3.org/2000/svg" viewBox="0 0 935.61 366.3">
  <defs>
    <style>
      .cls-1 {
        fill: #323777;
      }
    </style>
  </defs>
  <title>logocodossolotexto</title>
  <path class="cls-1" d="M792.12,105.54c-13.6,4.78-15.44,8.94-15.44,35.16,0,11.39-.25,20.58-0.61,20.58a44,44,0,0,1-5.51-5.39,43.93,43.93,0,0,0-12.37-8.7c-7-3.06-8.45-3.31-20-2.82-15.31.61-23.4,3.92-33,13.48C692.4,171,687,186.76,686.89,212.12c-0.12,17.15,1.35,24.87,7.35,36.51,9.07,18.13,28.3,27.81,54.76,27.81,31.61-.12,52.8-14.58,58.93-40.55,1.47-6.49,1.84-18.87,1.84-70.08V103.7h-6.37A43.35,43.35,0,0,0,792.12,105.54Zm-31.73,69.83c11.64,5.88,16.91,18.5,16,39.08-1,23.77-10.17,34.92-28.54,35s-28.67-15.93-27.32-42.39c0.61-11.39,4.17-22.17,9.31-27.93C736.26,172.06,750.22,170.34,760.39,175.37Z" transform="translate(-13.45 -103.7)"/>
  <path class="cls-1" d="M55.11,144.13c-20.95,4.41-37.12,22.3-40.43,44.72-0.61,4.66-1.23,25.85-1.23,46.8V274H44.08v-40.8c0-36.75.25-41.16,2.33-45.57,7.72-17,32.71-18.62,40.43-2.57,2.45,4.9,2.57,7.23,2.57,47V274H120v-40.8c0-36.75.25-41.16,2.33-45.57,8-17.64,34.06-18.38,41.29-1.23,1.35,3.43,1.72,12.25,1.72,45.94V274H196V232.46c0-22.79-.61-44.47-1.23-48-1.72-9.31-7.72-20.83-14.09-27.2-18.38-18-50.47-18.87-69.83-1.84l-5.51,4.9-6.25-5.64A49.31,49.31,0,0,0,86,146.58C78,143.51,63.44,142.41,55.11,144.13Z" transform="translate(-13.45 -103.7)"/>
  <path class="cls-1" d="M263.37,144.25c-25.6,2.82-44.35,18.87-50.72,43.61-6.86,26.58-1.1,56.72,13.72,71.18,12.13,11.76,28.18,17.89,47.41,17.76,13.84,0,24.75-2.33,33.93-7.35,8-4.29,18.62-15.19,22.42-22.91l3.19-6.25-17.4-.37c-17.15-.37-17.52-0.25-20.58,2.7-4.9,4.78-11.39,6.86-20.7,6.86-9.68,0-15.07-1.47-20.95-5.88-4.29-3.19-9.07-12.37-10.41-20.21l-0.86-4.53H336l-0.86-12.37a138.88,138.88,0,0,0-2.08-18c-3.43-15.19-15.19-31.12-27.81-37.49C293.63,145.11,278.2,142.53,263.37,144.25Zm26,31.12c6,4.29,10.54,11.64,11,17.89l0.37,4.17-28.54.37-28.67.25,0.86-3.92c1.23-5.39,5.88-14.58,8.82-17.15,4.78-4.41,10.41-5.88,20.83-5.64C282.85,171.69,284.57,172.06,289.34,175.37Z" transform="translate(-13.45 -103.7)"/>
  <path class="cls-1" d="M606.77,144.13c-20.95,3.8-34.79,16-37.73,33.69-0.49,2.7-1.1,5.88-1.47,7-0.49,2.08.86,2.21,15.56,2.21H599l1.23-3.43c3.8-10.54,8.82-13.72,21.81-13.72,4.9,0,10.78.74,13,1.72,10.78,4.53,10.66,17.52-.25,21.68-1.72.74-9.56,2.08-17.4,3.06-24.38,3.19-35.9,7.23-43.74,15.44-12.86,13.35-13.48,38.84-1.23,52.07,9.68,10.54,19.36,13.23,44.23,12.25,23.52-.86,37-5.27,47.17-15.44C674.51,250,676.6,239.68,676,200.11c-0.37-28.42-.37-28.42-3.92-35.53-4.29-8.94-10.17-13.35-23.28-17.52C637.64,143.51,617.79,142.17,606.77,144.13Zm36.14,78.28c-0.74,13.11-3.19,18.74-10.41,24.26-6,4.41-16.29,7.11-23.15,5.76a20.89,20.89,0,0,1-8.21-4.17c-3.06-2.7-3.8-4.41-4.17-9.92-1-12.37,4.41-16.66,25.85-20.95,6.74-1.35,13.72-3.19,15.44-4.17a24.86,24.86,0,0,1,4.17-1.72C643,211.51,643.27,216.41,642.91,222.41Z" transform="translate(-13.45 -103.7)"/>
  <path class="cls-1" d="M863.67,145.11c-19.85,5.27-34.18,20.46-41.16,43.74-2.7,9.07-3.06,30-.61,39.82,2.57,10.78,9.8,24.26,16.66,31.24,11.27,11.64,25,16.54,45.94,16.54,28.54,0,46.06-10,57.09-32.71,16.54-34.06,4.53-79.51-24.87-94.58C904.34,142.9,879.59,140.94,863.67,145.11Zm30.26,26.58a23.77,23.77,0,0,1,11.15,7.23c6.74,7.35,9.31,16.17,9.19,31.36-0.12,18.38-5,29.65-15.44,35.65-4.17,2.33-6.86,2.94-14.33,2.94-7.84,0-10-.49-14.95-3.43-12.5-7.35-18.25-26.71-14.33-48,2.45-13.48,9.43-22.54,19.48-25.73C881.92,169.49,886.45,169.49,893.93,171.69Z" transform="translate(-13.45 -103.7)"/>
  <path class="cls-1" d="M400,145.35c-21.19,4.29-36.75,17.27-45,37.73-2.7,6.74-2.82,8.45-3.19,48.88l-0.37,42h33.2V237.48c0-41,.74-45.94,7.6-52.56,6-5.76,11.76-7.72,23-7.72h9.8V144.13l-10,.12A128.33,128.33,0,0,0,400,145.35Z" transform="translate(-13.45 -103.7)"/>
  <path class="cls-1" d="M473,146.09c-19.72,5.27-33.32,19.36-40.06,41.65-1.72,5.39-2.33,11.27-2.33,23.77,0,19.48,2.45,29.16,10.17,41.16,11.52,17.76,27.93,24.62,55.62,23.52,15.31-.74,23.15-2.94,33.44-9.8,7.47-4.9,17-17.76,20.21-27.2,4.17-12.5,5-11.76-15.31-11.76-16.29,0-17.76.12-17.76,2.21,0,1.23-1.35,4.9-3.06,8.33-4.29,8.58-8.7,10.9-20.34,10.9-12.25,0-18.13-3.55-22.91-13.84-4.41-9.43-5.39-30.63-2.08-42.88,3.92-14.46,14.95-22.3,29.16-20.58,10.17,1.1,15.56,6.13,19.6,18.13,0.74,2,2.7,2.21,18.13,2.21h17.4L552.13,186c-2.45-20.46-15.31-34.3-37.12-40.06C505.82,143.64,481.93,143.64,473,146.09Z" transform="translate(-13.45 -103.7)"/>
  <path class="cls-1" d="M272.93,299.22c-7.35,2.21-13.84,8.33-15.56,14.58-0.86,3.31-1.35,28.67-1.35,79.39v74.49l15.68-.37,15.56-.37,0.37-84.9,0.25-84.78-4.53.12A43.43,43.43,0,0,0,272.93,299.22Z" transform="translate(-13.45 -103.7)"/>
  <path class="cls-1" d="M313.6,313.43v16.29l16.54-.37,16.54-.37V297.26H313.6v16.17Z" transform="translate(-13.45 -103.7)"/>
  <path class="cls-1" d="M387.84,299.1c-7.11,2.57-10.78,5.64-13.84,11.64-2.82,5.39-2.82,5.88-2.82,57.82,0,56.48.37,60.4,6.49,73C386.62,460,405.61,470,431.82,470c33,0,51.58-12.74,60.15-41,3.06-10,3.06-35.9,0-47-6.49-23.89-21.68-39.33-42.39-43-15.56-2.82-27.44.61-38.59,11.15l-6.74,6.37V297.26H398.5A40.32,40.32,0,0,0,387.84,299.1ZM444,368.81c5.88,2.45,11.52,10,14.46,19.6,3.31,11,2.7,28.91-1.35,38.1C451.79,438.39,444.93,443,432.8,443c-18.13-.12-28.54-13.48-28.54-36.88,0-18.74,5.27-30.75,15.8-36.26C426.31,366.6,437.46,366.11,444,368.81Z" transform="translate(-13.45 -103.7)"/>
  <path class="cls-1" d="M560.46,338.55q-41.16,5.7-52.92,43.86c-2,6.49-2.21,12.13-2.21,45.94v38.59l16,0.37,16.17,0.37,0.61-37.12c0.37-23.52,1.1-38.84,2-41.78,3.55-11.15,13.84-17.4,29.16-17.4h8.94V337.69l-7,.12C567.32,337.94,562.54,338.3,560.46,338.55Z" transform="translate(-13.45 -103.7)"/>
  <path class="cls-1" d="M626.12,340.14c-11.39,3.06-18.62,7.23-26.58,15.44-11.76,12-16.78,27-16.78,49.49,0,22.79,4.78,36.26,16.91,47.66S627.71,470,646.46,470s33.44-5.27,44.35-16c5.51-5.39,13.6-17.15,13.6-19.85,0-.49-7.84-0.86-17.52-0.86-17.4,0-17.64,0-20.58,3.19-4.41,4.9-9.8,6.62-20.34,6.62-17.89-.12-27.56-8.09-30.38-25.48l-0.86-5.15h92.49l-0.74-13.23A98.37,98.37,0,0,0,703.3,378c-5.51-17.52-19-31.61-35.41-36.75C655.77,337.45,637.76,337,626.12,340.14ZM654.54,366c8.94,2.45,17.89,13.48,18,22.17v3.43H616l0.74-3.8c2-9.68,9.31-19.23,16.78-21.56C639,364.52,648.79,364.4,654.54,366Z" transform="translate(-13.45 -103.7)"/>
  <path class="cls-1" d="M313.6,404.46v63.09h33.08V341.37H313.6v63.09Z" transform="translate(-13.45 -103.7)"/>
</svg>
