<svg id="Capa_1" data-name="Capa 1" xmlns="http://www.w3.org/2000/svg" viewBox="0 0 367.66 206.37"><defs><style>.cls-1{fill:#008296;}.cls-2{fill:#633368;}.cls-3{fill:#25a3b4;}</style></defs><title>Logotipo Marisa Peraggini</title><path class="cls-1" d="M428.36,273.3a8.23,8.23,0,0,0-2.81-6.35q-2.82-2.56-7.77-2.56h-9.64a4.78,4.78,0,0,1-3.31-1,2.92,2.92,0,0,1-1.09-2.18A3.36,3.36,0,0,1,406,258a25.92,25.92,0,0,0,6,.84q5.95,0,9.57-2.83a8.71,8.71,0,0,0,3.62-7.14,8,8,0,0,0-2.07-5.27,7.9,7.9,0,0,0,5-4.19v-0.24H412.94c-0.48,0-1,0-1.42,0q-6.76,0-10.07,2.86a8.83,8.83,0,0,0-3.31,6.91,8.42,8.42,0,0,0,4.5,7.52q-5.18,2.51-5.18,6.75c0,5.16,5.56,7.43,11.45,7.43h11.27c6.51,0,8.05,2.88,8.05,3.95a3.59,3.59,0,0,1,0,.53A9.08,9.08,0,0,0,428.36,273.3Zm-22-28.77a7.44,7.44,0,0,1,5.36-1.86v0h0.7a6.83,6.83,0,0,1,4.63,1.76,5.93,5.93,0,0,1,1.8,4.39q0,6.8-7.22,6.8a7.42,7.42,0,0,1-5.28-1.79,6.1,6.1,0,0,1-1.9-4.66A6.23,6.23,0,0,1,406.41,244.53Z" transform="translate(-135.28 -68.74)"/><path class="cls-1" d="M458.58,273.3a8.23,8.23,0,0,0-2.81-6.35q-2.82-2.56-7.76-2.56h-9.65a4.76,4.76,0,0,1-3.31-1,2.93,2.93,0,0,1-1.1-2.18,3.36,3.36,0,0,1,2.26-3.19,25.84,25.84,0,0,0,6,.84q5.95,0,9.56-2.83a8.7,8.7,0,0,0,3.62-7.14,8,8,0,0,0-2.07-5.27,7.9,7.9,0,0,0,5-4.19v-0.24H443.16c-0.48,0-1,0-1.43,0q-6.74,0-10.06,2.86a8.83,8.83,0,0,0-3.31,6.91,8.42,8.42,0,0,0,4.5,7.52q-5.18,2.51-5.18,6.75c0,5.16,5.56,7.43,11.45,7.43h11.26c6.51,0,8.05,2.88,8.05,3.95a3.34,3.34,0,0,1,0,.53A8.93,8.93,0,0,0,458.58,273.3Zm-22-28.77a7.44,7.44,0,0,1,5.36-1.86v0h0.7a6.84,6.84,0,0,1,4.63,1.76,5.94,5.94,0,0,1,1.8,4.39q0,6.8-7.22,6.8a7.42,7.42,0,0,1-5.28-1.79,6.11,6.11,0,0,1-1.9-4.66A6.23,6.23,0,0,1,436.63,244.53Z" transform="translate(-135.28 -68.74)"/><path class="cls-1" d="M171.33,266.68h-6.76V234.5L154.4,266.68h-3.47L140.69,234.5v32.18h-5.41V229.92h10.37l7.7,23.67,7.57-23.67h10.42v36.76Z" transform="translate(-135.28 -68.74)"/><path class="cls-1" d="M494.11,266.68H488v-17a5.85,5.85,0,0,0-1.24-4.05,3.9,3.9,0,0,0-3-1.36,5.41,5.41,0,0,0-4.2,2.1q-1.8,2.1-1.8,6.33v14H471.6v-27.2h5.6v6.3q2.94-6.87,8.24-6.87a8.91,8.91,0,0,1,6.13,2.26q2.54,2.26,2.54,7.94v17.56Z" transform="translate(-135.28 -68.74)"/><path class="cls-1" d="M280.2,256.4v-7.49a16.45,16.45,0,0,0-.53-5,6.82,6.82,0,0,0-1.9-2.72,7.89,7.89,0,0,0-3.37-1.78,20.67,20.67,0,0,0-5.14-.53q-5.82,0-8.89,2.2a7.92,7.92,0,0,0-3.5,5.59l5.22,0.78q0.76-4.23,6.36-4.23,5.77,0,5.76,4.23v2l-1.75,0q-16.45,0-16.46,9.37a8,8,0,0,0,2.46,6,9,9,0,0,0,6.53,2.38,44.77,44.77,0,0,0,6.12-.33C274,266.13,279,263.72,280.2,256.4Zm-6-1.06a7.83,7.83,0,0,1-1.79,5,6.39,6.39,0,0,1-5.29,2.22,4.92,4.92,0,0,1-3.62-1.2,3.94,3.94,0,0,1-1.2-2.9q0-5.68,11.9-5.68v2.51Z" transform="translate(-135.28 -68.74)"/><path class="cls-1" d="M199.86,256.4v-7.49a16.41,16.41,0,0,0-.53-5,6.83,6.83,0,0,0-1.9-2.72,7.89,7.89,0,0,0-3.37-1.78,20.67,20.67,0,0,0-5.14-.53q-5.82,0-8.89,2.2a7.92,7.92,0,0,0-3.5,5.59l5.22,0.78q0.75-4.23,6.36-4.23,5.76,0,5.76,4.23v2l-1.75,0q-16.45,0-16.46,9.37a8,8,0,0,0,2.46,6,9,9,0,0,0,6.53,2.38,44.76,44.76,0,0,0,6.12-.33C193.66,266.13,198.71,263.72,199.86,256.4Zm-6-1.06a7.83,7.83,0,0,1-1.79,5,6.39,6.39,0,0,1-5.29,2.22,4.92,4.92,0,0,1-3.62-1.2,3.94,3.94,0,0,1-1.2-2.9q0-5.68,11.9-5.68v2.51Z" transform="translate(-135.28 -68.74)"/><path class="cls-1" d="M395.14,256.4v-7.49a16.33,16.33,0,0,0-.53-5,6.79,6.79,0,0,0-1.9-2.72,7.89,7.89,0,0,0-3.37-1.78,20.64,20.64,0,0,0-5.14-.53q-5.82,0-8.89,2.2a7.92,7.92,0,0,0-3.5,5.59l5.23,0.78q0.75-4.23,6.36-4.23,5.76,0,5.76,4.23v2l-1.75,0q-16.46,0-16.46,9.37a8,8,0,0,0,2.47,6,9,9,0,0,0,6.53,2.38,44.86,44.86,0,0,0,6.12-.33C388.94,266.13,394,263.72,395.14,256.4Zm-6-1.06a7.82,7.82,0,0,1-1.79,5,6.38,6.38,0,0,1-5.29,2.22,4.92,4.92,0,0,1-3.62-1.2,3.94,3.94,0,0,1-1.2-2.9q0-5.68,11.9-5.68v2.51Z" transform="translate(-135.28 -68.74)"/><path class="cls-1" d="M218.87,238.68a6.56,6.56,0,0,0-4.25,1.75,11.6,11.6,0,0,0-3.26,5.55v-6.49h-5.55V266.6c0.78-.08,5.77-0.84,6.14-7v-5.48a12.73,12.73,0,0,1,1.52-5.79q1.52-3,6.21-3v-6.6Z" transform="translate(-135.28 -68.74)"/><path class="cls-1" d="M368.88,238.68a6.55,6.55,0,0,0-4.25,1.75,11.57,11.57,0,0,0-3.26,5.55v-6.49h-5.55V266.6c0.78-.08,5.77-0.84,6.14-7v-5.48a12.75,12.75,0,0,1,1.53-5.79q1.52-3,6.2-3v-6.6Z" transform="translate(-135.28 -68.74)"/><path class="cls-1" d="M247.75,250.5l-5.84-1.21q-4-.81-4-2.94,0-3.07,4.9-3.07,4,0,4.9,3.07l1.16-.23a6.73,6.73,0,0,0,3.63-2.53q-2.46-4.67-9.85-4.67-5.17,0-7.78,2.52a8.19,8.19,0,0,0-2.61,6.13q0,6.46,8.24,8.05l5,0.94a4.89,4.89,0,0,1,2.1.94,2.17,2.17,0,0,1,.89,1.78q0,3.37-5.71,3.37-4.5,0-5.82-3.31l-5.76,1.11a8,8,0,0,0,4.17,5.13,15.64,15.64,0,0,0,7.38,1.68,15.2,15.2,0,0,0,8.32-2.22,7.42,7.42,0,0,0,3.5-6.72Q254.56,251.9,247.75,250.5Z" transform="translate(-135.28 -68.74)"/><path class="cls-1" d="M228.46,229.92h-5.93v6.2A6.81,6.81,0,0,0,228.46,229.92Z" transform="translate(-135.28 -68.74)"/><path class="cls-1" d="M228.57,258.84h0.1V239.49h-6.14v27.2H223C224.59,266.35,228.64,264.91,228.57,258.84Z" transform="translate(-135.28 -68.74)"/><path class="cls-1" d="M502.73,229.92H496.8v6.2A6.81,6.81,0,0,0,502.73,229.92Z" transform="translate(-135.28 -68.74)"/><path class="cls-1" d="M502.84,258.84h0.1V239.49H496.8v27.2h0.44C498.87,266.35,502.91,264.91,502.84,258.84Z" transform="translate(-135.28 -68.74)"/><path class="cls-1" d="M467.2,229.92h-5.93v6.2A6.81,6.81,0,0,0,467.2,229.92Z" transform="translate(-135.28 -68.74)"/><path class="cls-1" d="M467.3,258.84h0.1V239.49h-6.14v27.2h0.44C463.33,266.35,467.38,264.91,467.3,258.84Z" transform="translate(-135.28 -68.74)"/><path class="cls-1" d="M323.44,233.17q-3.11-3.24-9.53-3.25h-15v36.76h6.62V254.37h0v-9.45h0v-9.5h7.23q3.9,0,5.39,1.62a5.52,5.52,0,0,1,1.49,3.88,5.24,5.24,0,0,1-1.61,4,6.6,6.6,0,0,1-4.68,1.51h-1a6.79,6.79,0,0,0-6,5.68h8.42a12,12,0,0,0,8.52-3.12A11.29,11.29,0,0,0,323.44,233.17Z" transform="translate(-135.28 -68.74)"/><path class="cls-1" d="M333.89,249.42v-0.11l0-.21a7.38,7.38,0,0,1,1.89-4.13,6,6,0,0,1,8.52.12,6.84,6.84,0,0,1,1.77,4.79h-4.54a6.82,6.82,0,0,0-5.55,4H352.5l0-.7a15.91,15.91,0,0,0-3.18-10.23,10.84,10.84,0,0,0-9-4,11.79,11.79,0,0,0-9.43,4,15.09,15.09,0,0,0-3.47,10.21q0,6.49,3.45,10.29a11.71,11.71,0,0,0,9.1,3.8,12.49,12.49,0,0,0,7.84-2.4,11.59,11.59,0,0,0,4.2-6.09l-5.54-.75a6.57,6.57,0,0,1-10,3.18,6,6,0,0,1-2.09-2.91,14.49,14.49,0,0,1-.52-4V254A32.07,32.07,0,0,1,333.89,249.42Z" transform="translate(-135.28 -68.74)"/><path class="cls-2" d="M319.48,210.26a64,64,0,0,0,63.78-56.62,96.7,96.7,0,0,0-127.53,0A64,64,0,0,0,319.48,210.26Z" transform="translate(-135.28 -68.74)"/><path class="cls-1" d="M298.57,112.31l-1.21,3.91a1.48,1.48,0,0,0,.83,1.76L309,122.5c0.67,0.28.89,0,.5-0.6,0,0-8.29-14-8.17-22.36,0.36-25.56,24.76-22.79,24.76-22.79,0.69-.23.77-0.76,0.2-1.19L317.5,69a1.16,1.16,0,0,0-1.72.34l-2.86,4.78a2,2,0,0,1-2,.89l-9-1.7a1.12,1.12,0,0,0-1.36,1.07l-0.39,8a2.38,2.38,0,0,1-1.26,1.86l-6.7,3.08a1,1,0,0,0-.42,1.61l4.41,6a1.69,1.69,0,0,1-.1,2L289,104.91a0.93,0.93,0,0,0,.31,1.54l8.45,4A1.57,1.57,0,0,1,298.57,112.31Z" transform="translate(-135.28 -68.74)"/><path class="cls-1" d="M354,101.51l-12-5.69a2.06,2.06,0,0,1-1.18-1.4c0-2.19-.6-16.57-18.51-16.57-6.18,0-20.36,5.64-19.27,22.27,0.69,10.49,9,22.21,11.71,24.87a15.66,15.66,0,0,1,3.7,5.23c-0.35-.25-0.71-0.5-1.11-0.75a71.29,71.29,0,0,0-6.91-3.12c-10.33-4.67-12.68-4.64-13.86-3.1s-0.59,5.19,5.39,9c3.26,2.11,2.27,3.59,1.91,4.61-0.46,1.36-6.71,3.7-8.9,5.94s-1,5.4,3.65,5.08c3.75-.26,12.3.18,18.07-2.36-0.55,1.12-1.18,2.29-1.92,3.53-8.15,13.6-11.77,13.42-16.67,21A23.28,23.28,0,0,0,295,189.7c1.74,6.46,8.16,12.15,18.31,12.15s15-8.89,15-16.14c0-5.62-3.47-13.24-13.4-13.24-9,0-10.12,7.23-10.12,8.76s0.68,6.92,6.68,7.2c5.69,0.26,4.75-2.94,4.53-3.45a1.63,1.63,0,0,0-1.63-1.09c-1.77.16-.54,2.18-2.53,2s-3.62-1.55-3.62-4.71c0-3.45,2.35-5.26,6.3-5.26,4.29,0,8.55,3.63,8.55,9.61s-4.82,10-10.83,10c-4.91,0-11.52-4.21-11.52-12.86,0-10.7,16.4-18.94,22-21.68s22.32-10,22.32-28.21c0-15.23-12.07-20.28-16.32-22.12a24.09,24.09,0,0,1-9.61-7.07,7.56,7.56,0,0,1-1.28-2.5,5.8,5.8,0,0,1,.64.31c4.27,2.85,9.32,3.3,15.69,1.71a2.81,2.81,0,0,1,3.06.68c3.07,2.37,9.16,7.13,9.68,7.47s3.73,3.3,5.71,1.92c1.61-1.12,1.05-2.36,2-4.05s2.93-2.59,2.85-4.58C357.35,102.71,354.48,101.7,354,101.51Z" transform="translate(-135.28 -68.74)"/><path class="cls-3" d="M352.6,104.9s-13.18-7.5-13.75-7a1.63,1.63,0,0,1-1.87.54c-0.44-.44.12-1.48,0.24-2.46,0.64-3.42-1.14-13.92-13.43-13.92-5.34,0-12.37,2.77-14.63,9.15-2.6,7.32-1.8,14.28,2.9,21.94S325.64,125,326,135.3s-9.06,21.4-9.06,21.4c17-5.44,22.12-17.23,22.12-23.76s-2.37-11.43-7.62-14.69a125.42,125.42,0,0,1-14.31-10.34c-5.24-4.62-4.17-8-2.32-9.29a11.75,11.75,0,0,1-2-3.57c-0.25-.71.13-1.16,0.82-0.4A17.21,17.21,0,0,0,319.79,99c7.14,2.93,14.44,1,15.53.68a2.29,2.29,0,0,1,1.92.57c1.12,0.83,12,8.06,12,8.06s1.44,1.39,2.16,1c0.88-.45.71-1.09,1-1.67a6.19,6.19,0,0,0,1-1.8A1.08,1.08,0,0,0,352.6,104.9ZM330.69,87.38c-0.09,0-.12.21-0.09,0.36a2.3,2.3,0,0,1,0,.32,2.81,2.81,0,1,1-5.62,0,2.5,2.5,0,0,1,0-.34,0.37,0.37,0,0,0-.32-0.31c-0.1,0-.47-0.39.16-1a4.09,4.09,0,0,1,5.86,0C331.3,87,331.13,87.43,330.69,87.38Z" transform="translate(-135.28 -68.74)"/></svg>