<svg id="Capa_1" data-name="Capa 1" xmlns="http://www.w3.org/2000/svg" viewBox="0 0 532.22 63.68">
  <defs>
    <style>
      .cls-1 {
        fill: #2e3192;
      }
    </style>
  </defs>
  <title>logoCodosOneLine</title>
  <path class="cls-1" d="M299.9,104.37c-5,1.76-5.68,3.29-5.68,12.93a61,61,0,0,1-.23,7.57,16.19,16.19,0,0,1-2-2,16.16,16.16,0,0,0-4.55-3.2c-2.57-1.13-3.11-1.22-7.35-1-5.63.23-8.61,1.44-12.12,5-4.73,4.82-6.72,10.64-6.76,20,0,6.31.5,9.15,2.7,13.43,3.34,6.67,10.41,10.23,20.15,10.23,11.63,0,19.42-5.36,21.68-14.92,0.54-2.39.68-6.94,0.68-25.78V103.7H304A16,16,0,0,0,299.9,104.37Zm-11.67,25.69c4.28,2.16,6.22,6.81,5.9,14.38-0.36,8.74-3.74,12.84-10.5,12.89s-10.55-5.86-10.05-15.59c0.23-4.19,1.53-8.16,3.43-10.28C279.35,128.85,284.49,128.21,288.23,130.06Z" transform="translate(-13.45 -103.7)"/>
  <path class="cls-1" d="M28.78,118.57A19.44,19.44,0,0,0,13.9,135c-0.23,1.71-.45,9.51-0.45,17.22v14.11H24.72v-15c0-13.52.09-15.14,0.86-16.77,2.84-6.26,12-6.85,14.87-.95,0.9,1.8.95,2.66,0.95,17.31v15.41H52.66v-15c0-13.52.09-15.14,0.86-16.77,2.93-6.49,12.53-6.76,15.19-.45,0.5,1.26.63,4.51,0.63,16.9v15.32H80.6V151.06c0-8.38-.23-16.36-0.45-17.67a21.35,21.35,0,0,0-5.18-10c-6.76-6.62-18.57-6.94-25.69-.68l-2,1.8L45,122.45a18.14,18.14,0,0,0-4.82-3A24.87,24.87,0,0,0,28.78,118.57Z" transform="translate(-13.45 -103.7)"/>
  <path class="cls-1" d="M105.39,118.62c-9.42,1-16.31,6.94-18.66,16-2.52,9.78-.41,20.87,5,26.18,4.46,4.33,10.37,6.58,17.44,6.53,5.09,0,9.1-.86,12.48-2.7a23.8,23.8,0,0,0,8.25-8.43l1.17-2.3-6.4-.14c-6.31-.14-6.44-0.09-7.57,1-1.8,1.76-4.19,2.52-7.62,2.52s-5.54-.54-7.71-2.16c-1.58-1.17-3.34-4.55-3.83-7.44l-0.32-1.67h34.43l-0.32-4.55a51.09,51.09,0,0,0-.77-6.62c-1.26-5.59-5.59-11.45-10.23-13.79A28.11,28.11,0,0,0,105.39,118.62Zm9.55,11.45a9.84,9.84,0,0,1,4.06,6.58l0.14,1.53-10.5.14-10.55.09L98.41,137c0.45-2,2.16-5.36,3.24-6.31,1.76-1.62,3.83-2.16,7.66-2.07C112.56,128.71,113.19,128.85,114.95,130.06Z" transform="translate(-13.45 -103.7)"/>
  <path class="cls-1" d="M231.72,118.57c-7.71,1.4-12.8,5.9-13.88,12.39-0.18,1-.41,2.16-0.54,2.57-0.18.77,0.32,0.81,5.72,0.81h5.86l0.45-1.26c1.4-3.88,3.24-5,8-5a15.64,15.64,0,0,1,4.78.63c4,1.67,3.92,6.44-.09,8a43.58,43.58,0,0,1-6.4,1.13c-9,1.17-13.2,2.66-16.09,5.68-4.73,4.91-5,14.29-.45,19.15,3.56,3.88,7.12,4.87,16.27,4.51,8.65-.32,13.61-1.94,17.35-5.68,3.92-3.92,4.69-7.71,4.46-22.26-0.14-10.46-.14-10.46-1.44-13.07-1.58-3.29-3.74-4.91-8.56-6.44A40,40,0,0,0,231.72,118.57ZM245,147.37c-0.27,4.82-1.17,6.9-3.83,8.92a12.44,12.44,0,0,1-8.52,2.12,7.68,7.68,0,0,1-3-1.53c-1.13-1-1.4-1.62-1.53-3.65-0.36-4.55,1.62-6.13,9.51-7.71A31.17,31.17,0,0,0,243.3,144a9.15,9.15,0,0,1,1.53-.63C245.06,143.36,245.15,145.16,245,147.37Z" transform="translate(-13.45 -103.7)"/>
  <path class="cls-1" d="M326.22,118.93c-7.3,1.94-12.57,7.53-15.14,16.09-1,3.34-1.13,11-.23,14.65A28,28,0,0,0,317,161.16c4.15,4.28,9.19,6.08,16.9,6.08,10.5,0,16.95-3.7,21-12,6.08-12.53,1.67-29.25-9.15-34.79C341.19,118.12,332.08,117.4,326.22,118.93Zm11.13,9.78a8.75,8.75,0,0,1,4.1,2.66c2.48,2.7,3.43,5.95,3.38,11.54,0,6.76-1.85,10.91-5.68,13.11-1.53.86-2.52,1.08-5.27,1.08s-3.7-.18-5.5-1.26c-4.6-2.7-6.72-9.82-5.27-17.67,0.9-5,3.47-8.29,7.17-9.46A10.59,10.59,0,0,1,337.35,128.71Z" transform="translate(-13.45 -103.7)"/>
  <path class="cls-1" d="M155.64,119A21.8,21.8,0,0,0,139.1,132.9c-1,2.48-1,3.11-1.17,18l-0.14,15.46H150V152.91c0-15.1.27-16.9,2.79-19.33,2.21-2.12,4.33-2.84,8.47-2.84h3.61V118.57l-3.7,0A47.21,47.21,0,0,0,155.64,119Z" transform="translate(-13.45 -103.7)"/>
  <path class="cls-1" d="M182.5,119.29c-7.26,1.94-12.26,7.12-14.74,15.32-0.63,2-.86,4.15-0.86,8.74,0,7.17.9,10.73,3.74,15.14,4.24,6.53,10.28,9.06,20.46,8.65,5.63-.27,8.52-1.08,12.3-3.61,2.75-1.8,6.26-6.53,7.44-10,1.53-4.6,1.85-4.33-5.63-4.33-6,0-6.53,0-6.53.81a10.87,10.87,0,0,1-1.13,3.06c-1.58,3.15-3.2,4-7.48,4-4.51,0-6.67-1.31-8.43-5.09-1.62-3.47-2-11.27-.77-15.77,1.44-5.32,5.5-8.2,10.73-7.57,3.74,0.41,5.72,2.25,7.21,6.67,0.27,0.72,1,.81,6.67.81h6.4L211.62,134c-0.9-7.53-5.63-12.62-13.66-14.74C194.58,118.39,185.79,118.39,182.5,119.29Z" transform="translate(-13.45 -103.7)"/>
  <path class="cls-1" d="M385.91,104.42a8.65,8.65,0,0,0-5.72,5.36c-0.32,1.22-.5,10.55-0.5,29.2v27.4l5.77-.14,5.72-.14,0.14-31.23,0.09-31.19-1.67,0A16,16,0,0,0,385.91,104.42Z" transform="translate(-13.45 -103.7)"/>
  <path class="cls-1" d="M400.87,109.65v6l6.08-.14,6.08-.14V103.7H400.87v5.95Z" transform="translate(-13.45 -103.7)"/>
  <path class="cls-1" d="M428.18,104.37a8,8,0,0,0-5.09,4.28c-1,2-1,2.16-1,21.27,0,20.78.14,22.22,2.39,26.86,3.29,6.76,10.28,10.46,19.92,10.46,12.12,0,19-4.69,22.13-15.1,1.13-3.7,1.13-13.2,0-17.31-2.39-8.79-8-14.47-15.59-15.82-5.72-1-10.1.23-14.2,4.1l-2.48,2.34V103.7H432.1A14.83,14.83,0,0,0,428.18,104.37ZM448.82,130c2.16,0.9,4.24,3.7,5.32,7.21,1.22,4.06,1,10.64-.5,14-1.94,4.37-4.46,6.08-8.92,6.08-6.67,0-10.5-5-10.5-13.57,0-6.9,1.94-11.31,5.81-13.34A12.09,12.09,0,0,1,448.82,130Z" transform="translate(-13.45 -103.7)"/>
  <path class="cls-1" d="M491.68,118.89Q476.54,121,472.21,135c-0.72,2.39-.81,4.46-0.81,16.9v14.2l5.9,0.14,5.95,0.14,0.23-13.66c0.14-8.65.41-14.29,0.72-15.37,1.31-4.1,5.09-6.4,10.73-6.4h3.29V118.57l-2.57,0C494.2,118.66,492.45,118.8,491.68,118.89Z" transform="translate(-13.45 -103.7)"/>
  <path class="cls-1" d="M515.84,119.47a19.2,19.2,0,0,0-9.78,5.68c-4.33,4.42-6.17,9.91-6.17,18.21s1.76,13.34,6.22,17.53,10.32,6.35,17.22,6.35,12.3-1.94,16.31-5.9c2-2,5-6.31,5-7.3,0-.18-2.88-0.32-6.44-0.32-6.4,0-6.49,0-7.57,1.17-1.62,1.8-3.61,2.43-7.48,2.43-6.58,0-10.14-3-11.18-9.37l-0.32-1.89h34l-0.27-4.87a36.19,36.19,0,0,0-1.17-7.8,20.56,20.56,0,0,0-13-13.52A31.21,31.21,0,0,0,515.84,119.47ZM526.29,129c3.29,0.9,6.58,5,6.62,8.16v1.26H512.1l0.27-1.4c0.72-3.56,3.43-7.08,6.17-7.93A16.68,16.68,0,0,1,526.29,129Z" transform="translate(-13.45 -103.7)"/>
  <path class="cls-1" d="M400.87,143.13v23.21H413V119.92H400.87v23.21Z" transform="translate(-13.45 -103.7)"/>
</svg>
