<?xml version="1.0" encoding="utf-8"?>
<!-- Generator: Adobe Illustrator 19.2.1, SVG Export Plug-In . SVG Version: 6.00 Build 0)  -->
<svg version="1.1" id="Capa_1" xmlns="http://www.w3.org/2000/svg" xmlns:xlink="http://www.w3.org/1999/xlink" x="0px" y="0px"
	 viewBox="0 0 1000 1000" style="enable-background:new 0 0 1000 1000;" xml:space="preserve">
<style type="text/css">
	.st0{fill:#323777;}
</style>
<path class="st0" d="M366.5,155.9c-2.2,1-5.3,2.9-7,4.3c-1.6,1.4-5.7,4.2-9,6.2c-12.5,7.8-17.8,15.3-15.6,21.7
	c1.2,3.6,0.7,4.9-1.8,4.9c-1,0-3,1.2-4.5,2.6c-3.4,3.4-3.7,10.8-0.6,14.7l2,2.5l-7.8,5.5c-34,24-55.9,55.4-61.7,88.6
	c-2,11-1.9,35.9,0,47.9c2.7,16.4,10.4,36.7,19.3,50.6c16.3,25.5,43.1,48.5,75,64.5c74.7,37.4,191.1,41,273.2,8.4
	c53.2-21.1,91.5-56.7,106.7-99.1c6.2-17.5,7.7-26.3,7.7-48.2c0.1-20.6-0.5-25.1-5.1-39.5c-8.7-27.2-30.7-54.5-60.9-75.2
	c-7-4.8-7.1-5-5.8-7.4c3.5-6.3-0.1-14.9-6.8-16.3c-2.4-0.5-2.9-0.9-2-1.8c0.7-0.7,1.2-3.3,1.2-5.8c0-7.4-4.6-11.8-28.6-27.3
	c-4.8-3.1-9.9-4.3-14.1-3.2c-1.7,0.4-7.6,5.5-14.8,12.6l-12,11.8l-5.5-1.4c-9.5-2.5-29.9-6.3-44.5-8.2c-16.9-2.1-65.1-2.4-81-0.5
	c-15.6,1.9-33.4,5-45.9,8.1l-11.4,2.8l-11.4-11.4c-6.2-6.3-12.5-12.1-14-12.9C376.2,153.5,371.3,153.7,366.5,155.9z M394.3,180.7
	c21.3,21.2,28.2,29.3,36.2,42.7c6.1,10.3,24.3,49.5,35.9,77.5c4.1,9.7,10.2,23.9,13.6,31.6c9.5,21.3,12.2,30.4,12.4,40.5
	c0.1,7.3-0.2,9-2.3,12.3c-3.8,6.2-9.8,8.5-25.9,10.2c-54.1,5.5-104.2,4-142.2-4.4c-14-3.1-19.4-2.7-24,1.9l-2.1,2.1l-2-2.3
	c-14-16.4-24.9-42.7-24.9-59.9c0-9.2-1.2-8.6,19.5-9.5c35.1-1.6,83.5,8.7,125,26.6c6.6,2.8,12.6,5.4,13.3,5.7
	c0.8,0.4,0.6-1.2-0.9-4.8c-4.9-12.2-6.1-23.4-6.3-57.4c-0.2-25.6-0.4-28.8-2.5-37c-3.4-13.2-10-29.5-13.3-32.8
	c-2.7-2.8-3.1-2.8-10.1-2.3c-6.2,0.6-8.1,0.3-14.2-2c-16-6-26.7-9.3-33.7-10.4c-8.2-1.2-11.8-3.1-11.8-6c0-1.7,0.7-2,4.8-2
	c4.3,0.1,9,1.4,17.9,5.1c2.8,1.1,3.9,1.1,8-0.4c7.4-2.6,8.8-2.3,15,3.8c5.7,5.6,8.9,7.2,11.9,6.1c1.3-0.5-0.6-3-8.5-11.1
	c-10.8-11.1-11.7-13.1-8.6-18.5c2.3-4.1,1.7-4.3-2.4-1.1c-2.1,1.7-4.4,3.1-5,3.1c-0.7,0-2-1.9-3.1-4.3l-1.9-4.2v3.2
	c-0.1,4.6-1,6.3-3.5,6.3c-2.1,0.1-2.1,0.1-0.1,1.6c1.1,0.8,1.9,2,1.7,2.6c-0.2,0.6,0.4,0.8,1.5,0.3c4.6-2,6.9-1.7,8.1,1
	c0.7,1.4,1.2,3,1.2,3.4c0,1.2-11.4,3.4-13.6,2.7c-4.4-1.5-14.4-12.4-14.4-15.7c0-2.4,4.3-6.3,13.8-12.8
	c11.5-7.7,15.5-10.1,17.1-10.1C374.7,162,383.9,170.4,394.3,180.7z M638,170.2c12.2,8.2,17,12.5,17,15c0,2.3-11.6,14.7-14.5,15.4
	c-2.8,0.7-13.5-1.4-13.5-2.6c0-0.5,0.5-2.1,1.2-3.5c1.2-2.7,3.5-3,8.1-1c1.3,0.5,1.6,0.3,1.1-0.8c-0.3-1,0.2-1.8,1.8-2.3l2.3-0.8
	L639,189c-2.1-0.5-2.5-1.2-2.8-4.8c-0.3-4-2.2-5.1-2.2-1.3c0,1-0.9,2.6-2,3.6c-1.8,1.7-2.1,1.6-6-1.5c-4.3-3.4-5-2.9-2.3,1.7
	c2.6,4.6,1.1,7.6-9.3,18.3c-5.8,6-9.1,10.1-8.4,10.5c2.3,1.4,6.6-0.8,12.3-6.2c6.3-6,6.2-6,15.9-3.3c4.3,1.3,4.9,1.2,10.9-1.4
	c3.8-1.8,8.7-3.1,12.6-3.4c5.9-0.4,6.3-0.3,6.3,1.6c0,3.1-3.5,5-11.8,6.2c-7,1.1-17.7,4.4-33.7,10.4c-6,2.3-8,2.6-14.1,2.1
	c-6.6-0.6-7.3-0.5-10.1,1.9c-3.4,2.9-9,16.2-13.1,31.6c-2.3,8.9-2.5,11.6-3.3,43.5c-0.7,35.4-1.4,41.1-5.8,52.4
	c-1.5,3.6-1.7,5.2-0.9,4.8c0.7-0.3,5.6-2.4,10.8-4.7c13.2-5.8,41.8-15.2,59.1-19.5c30.8-7.6,59.4-10.7,80.3-8.7
	c6.5,0.6,12.1,1.4,12.3,1.6c1,1-3,24.5-5.4,31.6c-4.1,12.7-11.2,25-22.1,38.6l-2.4,2.9l-2.1-2.6c-5.2-6.3-10.9-7.1-25.7-3.8
	c-31.7,7-74.7,9.4-117,6.5c-27-1.9-37-3-41.5-4.8c-9.3-3.5-13.2-10.4-12.2-21.6c0.8-9.1,4.5-20.6,13.2-40.2c4-9.1,9.4-21.7,12-28
	c6.6-16.1,19.5-45,27.5-61.8c12.3-25.7,21.9-38.1,51.3-66.5c11.4-11,13.5-12.7,15.7-12.2C626.4,162.8,632.2,166.3,638,170.2z
	 M526.5,177c20.4,1.6,56.1,7.3,58.2,9.4c0.3,0.3-2.6,3.9-6.4,7.9c-8.6,9.3-15.6,19.4-22.7,32.8c-6.5,12.4-21.4,45.2-32.4,71.4
	c-4.4,10.4-11,25.9-14.6,34.3s-7.2,17.3-7.8,19.7c-0.7,2.5-1.5,4.5-1.8,4.5c-0.3,0-1.6-3.2-2.9-7.1c-1.3-4-5.2-13.8-8.8-21.8
	c-3.6-8-9.7-22.3-13.5-31.6c-11.2-26.9-30-67.5-35.8-77.2c-6.3-10.5-12.5-18.8-19.8-26.5l-5.4-5.7l4.4-1.1
	c13.5-3.7,43.9-8.3,61.8-9.3C492.1,175.9,513.5,176.1,526.5,177z M670.5,223.1c30.4,20.6,49.9,45,58.8,73.4
	c1.3,4.4,2.8,10.3,3.2,13.2l0.7,5.1l-17.9-0.5c-26-0.8-47.7,1.7-77.3,9.2c-13.9,3.5-35.2,10.2-47.4,14.9l-6.9,2.6l0.7-3.2
	c1.8-9.1,2.8-28.9,2.2-45c-0.7-21,0.4-29.2,6.5-47.3c5.5-16.4,5.1-15.9,13.2-15.6c7.3,0.3,15.3-1.6,22.7-5.4c5-2.5,13.6-5.1,24-7
	c3.6-0.7,6.6-1.3,6.8-1.4C660,216.1,664.8,219.2,670.5,223.1z M359.9,221.5c5.3,1.8,12.8,4.5,16.6,5.9c5.5,2.1,8.6,2.6,14.5,2.4
	l7.5-0.1l1.7,3.4c2.8,5.9,8.5,24,9.8,30.9c0.7,3.8,1.3,18.8,1.5,36c0.2,16.2,0.8,31.7,1.3,34.5c0.5,2.7,0.8,5.2,0.7,5.4
	c-0.2,0.1-6.6-2-14.2-4.7c-18.7-6.8-36-11.7-53.3-15.2c-22.1-4.4-32.9-5.3-56.6-4.8l-21.1,0.5l0.9-5.6c4.8-32.4,29.4-66.1,64.8-89
	c6.1-4,6.8-4.2,11.4-3.5C348.1,217.9,354.6,219.7,359.9,221.5z M501.3,391c2.4,4,9.1,8.4,15.7,10.4c6.5,1.9,29.7,4.1,60.5,5.7
	c32.1,1.6,66.9-1,99.8-7.7c11.8-2.3,13-2.4,15.2-1c2.8,1.8,4.9,5.2,4,6.6c-0.3,0.5-4.7,4.4-9.8,8.6c-96.2,80.9-287.5,78.2-377.6-5.2
	c-5.9-5.4-6.9-6.9-6.1-8.4c1.6-3,5.3-3.1,17.6-0.5c31.4,6.4,67.8,9.2,99.7,7.6c30.5-1.6,54.2-3.8,60.2-5.5c6.7-2,13.9-6.7,16.1-10.5
	c1-1.7,2.1-3.1,2.4-3.1C499.3,388,500.4,389.3,501.3,391z"/>
</svg>
