<?xml version="1.0" encoding="utf-8"?>
<!-- Generator: Adobe Illustrator 19.2.1, SVG Export Plug-In . SVG Version: 6.00 Build 0)  -->
<svg version="1.1" id="Capa_1" xmlns="http://www.w3.org/2000/svg" xmlns:xlink="http://www.w3.org/1999/xlink" x="0px" y="0px"
	 viewBox="0 0 1000 1000" style="enable-background:new 0 0 1000 1000;" xml:space="preserve">
<style type="text/css">
	.st0{fill:#323777;}
</style>
<g transform="translate(0.000000,1000.000000) scale(0.100000,-0.100000)">
	<path class="st0" d="M3665,8441c-22-10-53-29-70-43c-16-14-57-42-90-62c-125-78-178-153-156-217c12-36,7-49-18-49
		c-10,0-30-12-45-26c-34-34-37-108-6-147l20-25l-78-55c-340-240-559-554-617-886c-20-110-19-359,0-479c27-164,104-367,193-506
		c163-255,431-485,750-645c747-374,1911-410,2732-84c532,211,915,567,1067,991c62,175,77,263,77,482c1,206-5,251-51,395
		c-87,272-307,545-609,752c-70,48-71,50-58,74c35,63-1,149-68,163c-24,5-29,9-20,18c7,7,12,33,12,58c0,74-46,118-286,273
		c-48,31-99,43-141,32c-17-4-76-55-148-126l-120-118l-55,14c-95,25-299,63-445,82c-169,21-651,24-810,5c-156-19-334-50-459-81
		l-114-28l-114,114c-62,63-125,121-140,129C3762,8465,3713,8463,3665,8441z M3943,8193c213-212,282-293,362-427
		c61-103,243-495,359-775c41-97,102-239,136-316c95-213,122-304,124-405c1-73-2-90-23-123c-38-62-98-85-259-102
		c-541-55-1042-40-1422,44c-140,31-194,27-240-19l-21-21l-20,23c-140,164-249,427-249,599c0,92-12,86,195,95c351,16,835-87,1250-266
		c66-28,126-54,133-57c8-4,6,12-9,48c-49,122-61,234-63,574c-2,256-4,288-25,370c-34,132-100,295-133,328c-27,28-31,28-101,23
		c-62-6-81-3-142,20c-160,60-267,93-337,104c-82,12-118,31-118,60c0,17,7,20,48,20c43-1,90-14,179-51c28-11,39-11,80,4
		c74,26,88,23,150-38c57-56,89-72,119-61c13,5-6,30-85,111c-108,111-117,131-86,185c23,41,17,43-24,11c-21-17-44-31-50-31
		c-7,0-20,19-31,43l-19,42v-32c-1-46-10-63-35-63c-21-1-21-1-1-16c11-8,19-20,17-26s4-8,15-3c46,20,69,17,81-10c7-14,12-30,12-34
		c0-12-114-34-136-27c-44,15-144,124-144,157c0,24,43,63,138,128c115,77,155,101,171,101C3747,8380,3839,8296,3943,8193z M6380,8298
		c122-82,170-125,170-150c0-23-116-147-145-154c-28-7-135,14-135,26c0,5,5,21,12,35c12,27,35,30,81,10c13-5,16-3,11,8
		c-3,10,2,18,18,23l23,8l-25,6c-21,5-25,12-28,48c-3,40-22,51-22,13c0-10-9-26-20-36c-18-17-21-16-60,15c-43,34-50,29-23-17
		c26-46,11-76-93-183c-58-60-91-101-84-105c23-14,66,8,123,62c63,60,62,60,159,33c43-13,49-12,109,14c38,18,87,31,126,34
		c59,4,63,3,63-16c0-31-35-50-118-62c-70-11-177-44-337-104c-60-23-80-26-141-21c-66,6-73,5-101-19c-34-29-90-162-131-316
		c-23-89-25-116-33-435c-7-354-14-411-58-524c-15-36-17-52-9-48c7,3,56,24,108,47c132,58,418,152,591,195c308,76,594,107,803,87
		c65-6,121-14,123-16c10-10-30-245-54-316c-41-127-112-250-221-386l-24-29l-21,26c-52,63-109,71-257,38c-317-70-747-94-1170-65
		c-270,19-370,30-415,48c-93,35-132,104-122,216c8,91,45,206,132,402c40,91,94,217,120,280c66,161,195,450,275,618
		c123,257,219,381,513,665c114,110,135,127,157,122C6264,8372,6322,8337,6380,8298z M5265,8230c204-16,561-73,582-94
		c3-3-26-39-64-79c-86-93-156-194-227-328c-65-124-214-452-324-714c-44-104-110-259-146-343s-72-173-78-197c-7-25-15-45-18-45
		s-16,32-29,71c-13,40-52,138-88,218s-97,223-135,316c-112,269-300,675-358,772c-63,105-125,188-198,265l-54,57l44,11
		c135,37,439,83,618,93C4921,8241,5135,8239,5265,8230z M6705,7769c304-206,499-450,588-734c13-44,28-103,32-132l7-51l-179,5
		c-260,8-477-17-773-92c-139-35-352-102-474-149l-69-26l7,32c18,91,28,289,22,450c-7,210,4,292,65,473c55,164,51,159,132,156
		c73-3,153,16,227,54c50,25,136,51,240,70c36,7,66,13,68,14C6600,7839,6648,7808,6705,7769z M3599,7785c53-18,128-45,166-59
		c55-21,86-26,145-24l75,1l17-34c28-59,85-240,98-309c7-38,13-188,15-360c2-162,8-317,13-345c5-27,8-52,7-54c-2-1-66,20-142,47
		c-187,68-360,117-533,152c-221,44-329,53-566,48l-211-5l9,56c48,324,294,661,648,890c61,40,68,42,114,35
		C3481,7821,3546,7803,3599,7785z M5013,6090c24-40,91-84,157-104c65-19,297-41,605-57c321-16,669,10,998,77c118,23,130,24,152,10
		c28-18,49-52,40-66c-3-5-47-44-98-86c-962-809-2875-782-3776,52c-59,54-69,69-61,84c16,30,53,31,176,5c314-64,678-92,997-76
		c305,16,542,38,602,55c67,20,139,67,161,105c10,17,21,31,24,31S5004,6107,5013,6090z"/>
	<path class="st0" d="M7536,4515c-111-39-126-73-126-287c0-93-2-168-5-168c-2,0-23,20-45,44c-24,26-65,54-101,71
		c-57,25-69,27-163,23c-125-5-191-32-269-110c-105-107-149-236-150-443c-1-140,11-203,60-298c74-148,231-227,447-227
		c258,1,431,119,481,331c12,53,15,154,15,572v507h-52C7599,4529,7557,4523,7536,4515z M7277,3945c95-48,138-151,131-319
		c-8-194-83-285-233-286c-150,0-234,130-223,346c5,93,34,181,76,228C7080,3972,7194,3986,7277,3945z"/>
	<path class="st0" d="M1520,4200c-171-36-303-182-330-365c-5-38-10-211-10-382v-313h125h125v333c0,300,2,336,19,372
		c63,139,267,152,330,21c20-40,21-59,21-384v-342h125h125v333c0,300,2,336,19,372c65,144,278,150,337,10c11-28,14-100,14-375v-340
		h125h125v339c0,186-5,363-10,392c-14,76-63,170-115,222c-150,147-412,154-570,15l-45-40l-51,46c-28,25-75,54-107,66
		C1707,4205,1588,4214,1520,4200z"/>
	<path class="st0" d="M3220,4199c-209-23-362-154-414-356c-56-217-9-463,112-581c99-96,230-146,387-145c113,0,202,19,277,60
		c65,35,152,124,183,187l26,51l-142,3c-140,3-143,2-168-22c-40-39-93-56-169-56c-79,0-123,12-171,48c-35,26-74,101-85,165l-7,37h382
		h382l-7,101c-3,55-11,121-17,147c-28,124-124,254-227,306C3467,4192,3341,4213,3220,4199z M3432,3945c49-35,86-95,90-146l3-34
		l-233-3l-234-2l7,32c10,44,48,119,72,140c39,36,85,48,170,46C3379,3975,3393,3972,3432,3945z"/>
	<path class="st0" d="M6023,4200c-171-31-284-131-308-275c-4-22-9-48-12-57c-4-17,7-18,127-18h130l10,28c31,86,72,112,178,112
		c40,0,88-6,106-14c88-37,87-143-2-177c-14-6-78-17-142-25c-199-26-293-59-357-126c-105-109-110-317-10-425c79-86,158-108,361-100
		c192,7,302,43,385,126c87,87,104,171,99,494c-3,232-3,232-32,290c-35,73-83,109-190,143C6275,4205,6113,4216,6023,4200z M6318,3561
		c-6-107-26-153-85-198c-49-36-133-58-189-47c-20,4-50,19-67,34c-25,22-31,36-34,81c-8,101,36,136,211,171c55,11,112,26,126,34
		c14,7,29,13,34,14C6319,3650,6321,3610,6318,3561z"/>
	<path class="st0" d="M8120,4192c-162-43-279-167-336-357c-22-74-25-245-5-325c21-88,80-198,136-255c92-95,204-135,375-135
		c233,0,376,82,466,267c135,278,37,649-203,772C8452,4210,8250,4226,8120,4192z M8367,3975c36-11,62-28,91-59c55-60,76-132,75-256
		c-1-150-41-242-126-291c-34-19-56-24-117-24c-64,0-82,4-122,28c-102,60-149,218-117,392c20,110,77,184,159,210
		C8269,3993,8306,3993,8367,3975z"/>
	<path class="st0" d="M4335,4190c-173-35-300-141-367-308c-22-55-23-69-26-399l-3-343h135h136v298c0,335,6,375,62,429
		c49,47,96,63,188,63h80v135v135l-82-1C4412,4198,4357,4194,4335,4190z"/>
	<path class="st0" d="M4931,4184c-161-43-272-158-327-340c-14-44-19-92-19-194c0-159,20-238,83-336c94-145,228-201,454-192
		c125,6,189,24,273,80c61,40,139,145,165,222c34,102,41,96-125,96c-133,0-145-1-145-18c0-10-11-40-25-68c-35-70-71-89-166-89
		c-100,0-148,29-187,113c-36,77-44,250-17,350c32,118,122,182,238,168c83-9,127-50,160-148c6-16,22-18,148-18h142l-6,48
		c-20,167-125,280-303,327C5199,4204,5004,4204,4931,4184z"/>
	<path class="st0" d="M3298,2934c-60-18-113-68-127-119c-7-27-11-234-11-648v-608l128,3l127,3l3,693l2,692l-37-1
		C3362,2949,3324,2942,3298,2934z"/>
	<path class="st0" d="M3630,2818v-133l135,3l135,3v130v129h-135h-135V2818z"/>
	<path class="st0" d="M4236,2935c-58-21-88-46-113-95c-23-44-23-48-23-472c0-461,3-493,53-596c73-150,228-232,442-232
		c269,0,421,104,491,335c25,82,25,293,0,384c-53,195-177,321-346,351c-127,23-224-5-315-91l-55-52v242v241h-47
		C4296,2949,4257,2943,4236,2935z M4694,2366c48-20,94-82,118-160c27-90,22-236-11-311c-43-97-99-135-198-135
		c-148,1-233,110-233,301c0,153,43,251,129,296C4550,2384,4641,2388,4694,2366z"/>
	<path class="st0" d="M5645,2613c-224-31-368-150-432-358c-16-53-18-99-18-375v-315l131-3l132-3l5,303c3,192,9,317,16,341
		c29,91,113,142,238,142h73v138v137l-57-1C5701,2618,5662,2615,5645,2613z"/>
	<path class="st0" d="M6181,2600c-93-25-152-59-217-126c-96-98-137-220-137-404c0-186,39-296,138-389c98-92,229-141,382-141
		s273,43,362,131c45,44,111,140,111,162c0,4-64,7-143,7c-142,0-144,0-168-26c-36-40-80-54-166-54c-146,1-225,66-248,208l-7,42h378
		h377l-6,108c-3,65-14,133-26,173c-45,143-155,258-289,300C6423,2622,6276,2626,6181,2600z M6413,2389c73-20,146-110,147-181v-28
		h-231h-231l6,31c16,79,76,157,137,176C6286,2401,6366,2402,6413,2389z"/>
	<path class="st0" d="M3630,2075v-515h135h135v515v515h-135h-135V2075z"/>
</g>
</svg>
